<svg width="80" height="80" viewBox="0 0 80 80" fill="none" xmlns="http://www.w3.org/2000/svg">
<rect opacity="0.2" x="10" y="10" width="70" height="70" rx="10" fill="#F3AE5B"/>
<rect width="70" height="70" rx="10" fill="url(#paint0_linear_104_592)"/>
<path d="M34.9999 45.4409C32.4641 45.4409 29.9283 44.4776 27.9874 42.5367C24.1199 38.6692 24.1199 32.3792 27.9874 28.5117C31.8549 24.6442 38.145 24.6442 42.0125 28.5117C45.88 32.3792 45.88 38.6692 42.0125 42.5367C40.0716 44.4776 37.5358 45.4409 34.9999 45.4409ZM34.9999 27.7326C33.0024 27.7326 31.0049 28.4975 29.4891 30.0134C26.4574 33.0592 26.4574 37.9892 29.4891 41.0351C32.5349 44.0809 37.4791 44.0667 40.5108 41.0351C43.5425 37.9892 43.5425 33.0592 40.5108 30.0134C38.995 28.4975 36.9974 27.7326 34.9999 27.7326Z" fill="white"/>
<path d="M29.6876 49.7192C29.5601 49.7192 29.4184 49.6908 29.2909 49.6483C26.1034 48.3733 23.5251 46.1208 21.7967 43.1458C20.1251 40.2416 19.4593 36.955 19.8984 33.6117C19.9693 33.0308 20.5076 32.62 21.0884 32.6908C21.6692 32.7616 22.0801 33.3 22.0092 33.8808C21.6409 36.7425 22.2076 39.5758 23.6384 42.0691C25.1118 44.6191 27.3359 46.56 30.0701 47.6508C30.6084 47.8775 30.8776 48.4866 30.6651 49.0391C30.5093 49.4641 30.0984 49.7192 29.6876 49.7192Z" fill="white"/>
<path d="M26.2877 25.4091C25.976 25.4091 25.6644 25.2675 25.4519 24.9983C25.0835 24.5308 25.1685 23.865 25.636 23.5108C28.3419 21.4 31.5718 20.2808 35.0002 20.2808C38.3435 20.2808 41.531 21.3574 44.2085 23.3974C44.676 23.7516 44.761 24.4174 44.4069 24.8849C44.0527 25.3524 43.3868 25.4374 42.9193 25.0833C40.6243 23.3266 37.8902 22.4058 35.0002 22.4058C32.0535 22.4058 29.2627 23.3691 26.9393 25.1825C26.741 25.3383 26.5143 25.4091 26.2877 25.4091Z" fill="white"/>
<path d="M40.3128 49.7191C39.8878 49.7191 39.4912 49.4641 39.3212 49.0533C39.1087 48.5149 39.3637 47.8916 39.9162 47.665C42.6503 46.56 44.8745 44.6333 46.3479 42.0833C47.7929 39.59 48.3595 36.7566 47.977 33.8949C47.9062 33.3141 48.317 32.7758 48.8978 32.705C49.4645 32.6341 50.017 33.045 50.0878 33.6258C50.5128 36.955 49.8612 40.2558 48.1895 43.16C46.4753 46.135 43.8828 48.3733 40.6953 49.6624C40.582 49.6908 40.4545 49.7191 40.3128 49.7191Z" fill="white"/>
<defs>
<linearGradient id="paint0_linear_104_592" x1="70" y1="70" x2="-12.8132" y2="47.8024" gradientUnits="userSpaceOnUse">
<stop stop-color="#F2AC57"/>
<stop offset="1" stop-color="#FFC57F"/>
</linearGradient>
</defs>
</svg>
