<svg width="80" height="80" viewBox="0 0 80 80" fill="none" xmlns="http://www.w3.org/2000/svg">
<rect opacity="0.2" x="10" y="10" width="70" height="70" rx="10" fill="#5D5FEF"/>
<rect width="70" height="70" rx="10" fill="url(#paint0_linear_123_528)"/>
<path fill-rule="evenodd" clip-rule="evenodd" d="M46.9283 32.6856C46.4854 28.1428 43.7997 21 35.4999 21C27.2 21 24.5143 28.1428 24.0714 32.6856C22.5179 33.2752 21.4931 34.7668 21.5 36.4284V38.4284C21.5 40.6375 23.2909 42.4283 25.5 42.4283C27.7091 42.4283 29.5 40.6374 29.5 38.4284V36.4284C29.4927 34.8026 28.5057 33.3417 26.9999 32.7284C27.2857 30.0999 28.6857 23.8571 35.4999 23.8571C42.3141 23.8571 43.6998 30.0999 43.9855 32.7284C42.4828 33.343 41.5007 34.8049 41.4998 36.4284V38.4284C41.5029 39.181 41.7175 39.9177 42.1191 40.5542C42.5207 41.1907 43.0932 41.7015 43.7712 42.0283C43.1712 43.1569 41.6426 44.6854 37.8855 45.1425C37.1345 44.0022 35.6815 43.5526 34.4176 44.0696C33.1538 44.5865 32.4324 45.9256 32.696 47.2654C32.9596 48.6052 34.1344 49.5711 35.4999 49.5711C36.029 49.5681 36.5469 49.4183 36.9958 49.1383C37.4448 48.8584 37.8072 48.4592 38.0427 47.9854C44.1712 47.2854 46.1283 44.1283 46.7426 42.2711C48.4044 41.7328 49.5221 40.1751 49.4997 38.4284V36.4284C49.5066 34.7668 48.4818 33.2752 46.9283 32.6856ZM26.6428 38.4284C26.6428 39.0595 26.1312 39.5712 25.5 39.5712C24.8688 39.5712 24.3572 39.0596 24.3572 38.4284V36.4284C24.356 36.2776 24.3847 36.128 24.4416 35.9883C24.4985 35.8487 24.5825 35.7217 24.6888 35.6146C24.795 35.5076 24.9214 35.4226 25.0606 35.3646C25.1998 35.3066 25.3492 35.2768 25.5 35.2768C25.6508 35.2768 25.8001 35.3066 25.9394 35.3646C26.0786 35.4226 26.205 35.5076 26.3112 35.6146C26.4174 35.7217 26.5014 35.8487 26.5584 35.9883C26.6153 36.128 26.644 36.2776 26.6428 36.4284V38.4284ZM44.3569 36.4284C44.3569 35.7972 44.8685 35.2855 45.4997 35.2855C46.1309 35.2855 46.6426 35.7972 46.6426 36.4284V38.4284C46.6426 39.0595 46.1309 39.5712 45.4997 39.5712C44.8685 39.5712 44.3569 39.0596 44.3569 38.4284V36.4284Z" fill="white"/>
<defs>
<linearGradient id="paint0_linear_123_528" x1="70" y1="70" x2="-27.7904" y2="40.1297" gradientUnits="userSpaceOnUse">
<stop stop-color="#2E14A3"/>
<stop offset="1" stop-color="#2E14A3"/>
</linearGradient>
</defs>
</svg>
