<svg width="80" height="80" viewBox="0 0 80 80" fill="none" xmlns="http://www.w3.org/2000/svg">
<rect opacity="0.2" x="10" y="10" width="70" height="70" rx="10" fill="#F3AE5B"/>
<rect width="70" height="70" rx="10" fill="url(#paint0_linear_123_548)"/>
<path d="M34.5 27C32.8429 27 31.4286 26.4143 30.2571 25.2429C29.0857 24.0714 28.5 22.6571 28.5 21C28.5 19.3429 29.0857 17.9286 30.2571 16.7571C31.4286 15.5857 32.8429 15 34.5 15C36.1571 15 37.5714 15.5857 38.7429 16.7571C39.9143 17.9286 40.5 19.3429 40.5 21C40.5 22.6571 39.9143 24.0714 38.7429 25.2429C37.5714 26.4143 36.1571 27 34.5 27ZM34.5 23.5714C35.2143 23.5714 35.8217 23.3217 36.3223 22.8223C36.8229 22.3229 37.0726 21.7154 37.0714 21C37.0703 20.2846 36.8206 19.6777 36.3223 19.1794C35.824 18.6811 35.2166 18.4309 34.5 18.4286C33.7834 18.4263 33.1766 18.6766 32.6794 19.1794C32.1823 19.6823 31.932 20.2891 31.9286 21C31.9251 21.7109 32.1754 22.3183 32.6794 22.8223C33.1834 23.3263 33.7903 23.576 34.5 23.5714ZM34.5 49.2857L24.2143 39C23.6429 38.4286 23.2143 37.7857 22.9286 37.0714C22.6429 36.3571 22.5 35.5714 22.5 34.7143C22.5 33.0286 23.0789 31.6069 24.2366 30.4491C25.3943 29.2914 26.8154 28.7131 28.5 28.7143C29.3286 28.7143 30.0931 28.8714 30.7937 29.1857C31.4943 29.5 32.1297 29.9429 32.7 30.5143L34.5 32.3143L36.3 30.5143C36.8714 29.9429 37.5074 29.5 38.208 29.1857C38.9086 28.8714 39.6726 28.7143 40.5 28.7143C42.1857 28.7143 43.6074 29.2931 44.7651 30.4509C45.9229 31.6086 46.5011 33.0297 46.5 34.7143C46.5 35.5714 46.3571 36.3571 46.0714 37.0714C45.7857 37.7857 45.3571 38.4286 44.7857 39L34.5 49.2857ZM34.5 44.4L42.3 36.6C42.5571 36.3429 42.7503 36.0497 42.8794 35.7206C43.0086 35.3914 43.0726 35.056 43.0714 34.7143C43.0714 34.0286 42.8286 33.4286 42.3429 32.9143C41.8571 32.4 41.2429 32.1429 40.5 32.1429C40.1571 32.1429 39.8503 32.1931 39.5794 32.2937C39.3086 32.3943 39.044 32.5726 38.7857 32.8286L34.5 37.1143L30.2143 32.8286C30.0429 32.6571 29.8217 32.5 29.5509 32.3571C29.28 32.2143 28.9297 32.1429 28.5 32.1429C27.7571 32.1429 27.1429 32.4 26.6571 32.9143C26.1714 33.4286 25.9286 34.0286 25.9286 34.7143C25.9286 35.0571 26 35.3789 26.1429 35.6794C26.2857 35.98 26.4714 36.2583 26.7 36.5143L34.5 44.4Z" fill="white"/>
<defs>
<linearGradient id="paint0_linear_123_548" x1="70" y1="70" x2="-12.8132" y2="47.8024" gradientUnits="userSpaceOnUse">
<stop stop-color="#F2AC57"/>
<stop offset="1" stop-color="#FFC57F"/>
</linearGradient>
</defs>
</svg>
