<svg width="80" height="80" viewBox="0 0 80 80" fill="none" xmlns="http://www.w3.org/2000/svg">
<rect opacity="0.2" x="10" y="10" width="70" height="70" rx="10" fill="#29BAA2"/>
<rect width="70" height="70" rx="10" fill="url(#paint0_linear_123_517)"/>
<g clip-path="url(#clip0_123_517)">
<path d="M19 38C19.4167 38 19.7083 37.8333 19.875 37.5C20.0417 37.1667 20.0417 36.8333 19.875 36.5C19.7083 36.1667 19.4167 36 19 36C18.5833 36 18.2917 36.1667 18.125 36.5C17.9583 36.8333 17.9583 37.1667 18.125 37.5C18.2917 37.8333 18.5833 38 19 38ZM42.0156 37.0938C41.9115 36.9583 41.7109 36.6979 41.4141 36.3125C41.1172 35.9271 40.901 35.6458 40.7656 35.4688C40.6302 35.2917 40.4323 35.0365 40.1719 34.7031C39.9115 34.3698 39.6901 34.0938 39.5078 33.875C39.3255 33.6562 39.1146 33.4115 38.875 33.1406C38.6354 32.8698 38.401 32.6146 38.1719 32.375L36.2188 34.5625C35.3542 35.5417 34.2682 36.0208 32.9609 36C31.6536 35.9792 30.5833 35.4688 29.75 34.4688C29.1562 33.75 28.862 32.9271 28.8672 32C28.8724 31.0729 29.1771 30.2552 29.7812 29.5469L32.5469 26.3281C32.3177 26.2135 32.0521 26.1276 31.75 26.0703C31.4479 26.013 31.2005 25.9818 31.0078 25.9766C30.8151 25.9714 30.5208 25.974 30.125 25.9844C29.7292 25.9948 29.474 26 29.3594 26C28.401 26 27.5781 26.3438 26.8906 27.0312L24.4219 29.5H22V38C22.0521 38 22.1615 37.9974 22.3281 37.9922C22.4948 37.987 22.6094 37.987 22.6719 37.9922C22.7344 37.9974 22.8359 38.0078 22.9766 38.0234C23.1172 38.0391 23.224 38.0625 23.2969 38.0938C23.3698 38.125 23.4609 38.1693 23.5703 38.2266C23.6797 38.2839 23.776 38.3542 23.8594 38.4375L28.5 43C29.6979 44.1562 30.8802 44.7344 32.0469 44.7344C32.8594 44.7344 33.5104 44.4896 34 44C34.5938 44.2083 35.1797 44.1667 35.7578 43.875C36.3359 43.5833 36.7135 43.1406 36.8906 42.5469C37.6615 42.6094 38.3229 42.3802 38.875 41.8594C39.0833 41.6719 39.2708 41.4349 39.4375 41.1484C39.6042 40.862 39.6771 40.599 39.6562 40.3594C39.7604 40.4635 39.9844 40.5156 40.3281 40.5156C40.776 40.5156 41.1771 40.4062 41.5312 40.1875C41.8854 39.9688 42.1432 39.6927 42.3047 39.3594C42.4661 39.026 42.5286 38.6536 42.4922 38.2422C42.4557 37.8307 42.2969 37.4479 42.0156 37.0938ZM44.5 38H46V30H44.5469L42.0938 27.1875C41.4062 26.3958 40.526 26 39.4531 26H36.8438C35.9167 26 35.1562 26.349 34.5625 27.0469L31.2969 30.8438C31.0052 31.1875 30.8594 31.5781 30.8594 32.0156C30.8594 32.4531 31 32.8438 31.2812 33.1875C31.7292 33.7188 32.3021 33.9896 33 34C33.6979 34.0104 34.276 33.7552 34.7344 33.2344L37.75 29.8281C38.0104 29.5885 38.2891 29.4766 38.5859 29.4922C38.8828 29.5078 39.1276 29.6484 39.3203 29.9141C39.513 30.1797 39.5573 30.474 39.4531 30.7969C39.6198 30.9948 39.9115 31.3229 40.3281 31.7812C40.7448 32.2396 41.0573 32.5938 41.2656 32.8438C41.5677 33.2188 41.9974 33.7682 42.5547 34.4922C43.112 35.2161 43.4479 35.6562 43.5625 35.8125C44.1042 36.5 44.4167 37.2292 44.5 38ZM49 38C49.4167 38 49.7083 37.8333 49.875 37.5C50.0417 37.1667 50.0417 36.8333 49.875 36.5C49.7083 36.1667 49.4167 36 49 36C48.5833 36 48.2917 36.1667 48.125 36.5C47.9583 36.8333 47.9583 37.1667 48.125 37.5C48.2917 37.8333 48.5833 38 49 38ZM52 29V39C52 39.2708 51.901 39.5052 51.7031 39.7031C51.5052 39.901 51.2708 40 51 40H44.2188C43.9375 40.6771 43.5104 41.2318 42.9375 41.6641C42.3646 42.0964 41.7135 42.3646 40.9844 42.4688C40.6406 42.9688 40.2214 43.3932 39.7266 43.7422C39.2318 44.0911 38.6979 44.3281 38.125 44.4531C37.6875 45.0052 37.1432 45.4297 36.4922 45.7266C35.8411 46.0234 35.1719 46.151 34.4844 46.1094C33.8594 46.4635 33.2031 46.6693 32.5156 46.7266C31.8281 46.7839 31.1641 46.7109 30.5234 46.5078C29.8828 46.3047 29.2734 46.026 28.6953 45.6719C28.1172 45.3177 27.5781 44.8958 27.0781 44.4062L22.5938 40H17C16.7292 40 16.4948 39.901 16.2969 39.7031C16.099 39.5052 16 39.2708 16 39V28.5C16 28.2292 16.099 27.9948 16.2969 27.7969C16.4948 27.599 16.7292 27.5 17 27.5H23.5781C23.724 27.3542 23.9688 27.1042 24.3125 26.75C24.6562 26.3958 24.9036 26.1458 25.0547 26C25.2057 25.8542 25.4349 25.6458 25.7422 25.375C26.0495 25.1042 26.3125 24.9089 26.5312 24.7891C26.75 24.6693 27.0156 24.5365 27.3281 24.3906C27.6406 24.2448 27.9635 24.1432 28.2969 24.0859C28.6302 24.0286 28.9844 24 29.3594 24H31.1875C32.2188 24 33.1615 24.2917 34.0156 24.875C34.8698 24.2917 35.8125 24 36.8438 24H39.4531C39.8177 24 40.1667 24.0312 40.5 24.0938C40.8333 24.1562 41.1276 24.2318 41.3828 24.3203C41.638 24.4089 41.9062 24.5469 42.1875 24.7344C42.4688 24.9219 42.7005 25.0833 42.8828 25.2188C43.0651 25.3542 43.2891 25.5599 43.5547 25.8359C43.8203 26.112 44.0234 26.3307 44.1641 26.4922C44.3047 26.6536 44.5182 26.9036 44.8047 27.2422C45.0911 27.5807 45.3073 27.8333 45.4531 28H51C51.2708 28 51.5052 28.099 51.7031 28.2969C51.901 28.4948 52 28.7292 52 29Z" fill="white"/>
</g>
<defs>
<linearGradient id="paint0_linear_123_517" x1="70" y1="70" x2="-27.7904" y2="40.1297" gradientUnits="userSpaceOnUse">
<stop stop-color="#14A38B"/>
<stop offset="1" stop-color="#65FFE5"/>
</linearGradient>
<clipPath id="clip0_123_517">
<rect width="36" height="23" fill="white" transform="translate(16 24)"/>
</clipPath>
</defs>
</svg>
