<svg width="80" height="80" viewBox="0 0 80 80" fill="none" xmlns="http://www.w3.org/2000/svg">
<rect opacity="0.2" x="10" y="10" width="70" height="70" rx="10" fill="#7D65B6"/>
<rect width="70" height="70" rx="10" fill="url(#paint0_linear_123_538)"/>
<path d="M45.75 35.75H49.5V47H34.5V35.75H38.25V32H45.75V35.75ZM40.125 35.75H43.875V33.875H40.125V35.75ZM47.625 41.375H45.75V43.25H43.875V41.375H40.125V43.25H38.25V41.375H36.375V45.125H47.625V41.375ZM36.375 37.625V39.5H47.625V37.625H36.375ZM32.625 30.125C32.625 31.0332 32.4248 31.8828 32.0244 32.6738C31.624 33.4648 31.0527 34.1289 30.3105 34.666C30.75 34.8906 31.165 35.1494 31.5557 35.4424C31.9463 35.7354 32.3027 36.0625 32.625 36.4238V41.375C32.625 40.6035 32.4785 39.876 32.1855 39.1924C31.8926 38.5088 31.4922 37.9131 30.9844 37.4053C30.4766 36.8975 29.876 36.4922 29.1826 36.1895C28.4893 35.8867 27.7617 35.7402 27 35.75C26.2188 35.75 25.4912 35.8965 24.8174 36.1895C24.1436 36.4824 23.5479 36.8828 23.0303 37.3906C22.5127 37.8984 22.1074 38.499 21.8145 39.1924C21.5215 39.8857 21.375 40.6133 21.375 41.375H19.5C19.5 40.6621 19.5977 39.9736 19.793 39.3096C19.9883 38.6455 20.2666 38.0156 20.6279 37.4199C20.9893 36.8242 21.4336 36.2969 21.9609 35.8379C22.4883 35.3789 23.0645 34.9834 23.6895 34.6514C22.957 34.124 22.3906 33.4648 21.9902 32.6738C21.5898 31.8828 21.3848 31.0332 21.375 30.125C21.375 29.3535 21.5215 28.626 21.8145 27.9424C22.1074 27.2588 22.5078 26.6631 23.0156 26.1553C23.5234 25.6475 24.1191 25.2422 24.8027 24.9395C25.4863 24.6367 26.2188 24.4902 27 24.5C27.7031 24.5 28.3721 24.6221 29.0068 24.8662C29.6416 25.1104 30.2227 25.4717 30.75 25.9502C31.0625 25.667 31.4092 25.418 31.79 25.2031C31.458 24.8613 31.2041 24.4658 31.0283 24.0166C30.8525 23.5674 30.7598 23.1035 30.75 22.625C30.75 22.1074 30.8477 21.624 31.043 21.1748C31.2383 20.7256 31.5068 20.3252 31.8486 19.9736C32.1904 19.6221 32.5859 19.3535 33.0352 19.168C33.4844 18.9824 33.9727 18.8848 34.5 18.875C35.0176 18.875 35.501 18.9727 35.9502 19.168C36.3994 19.3633 36.7998 19.6318 37.1514 19.9736C37.5029 20.3154 37.7715 20.7109 37.957 21.1602C38.1426 21.6094 38.2402 22.0977 38.25 22.625C38.25 23.1035 38.1621 23.5674 37.9863 24.0166C37.8105 24.4658 37.5518 24.8613 37.21 25.2031C38.0205 25.6523 38.6797 26.2578 39.1875 27.0195C39.6953 26.2578 40.3545 25.6523 41.165 25.2031C40.833 24.8613 40.5791 24.4658 40.4033 24.0166C40.2275 23.5674 40.1348 23.1035 40.125 22.625C40.125 22.1074 40.2227 21.624 40.418 21.1748C40.6133 20.7256 40.8818 20.3252 41.2236 19.9736C41.5654 19.6221 41.9609 19.3535 42.4102 19.168C42.8594 18.9824 43.3477 18.8848 43.875 18.875C44.3926 18.875 44.876 18.9727 45.3252 19.168C45.7744 19.3633 46.1748 19.6318 46.5264 19.9736C46.8779 20.3154 47.1465 20.7109 47.332 21.1602C47.5176 21.6094 47.6152 22.0977 47.625 22.625C47.625 23.1035 47.5371 23.5674 47.3613 24.0166C47.1855 24.4658 46.9268 24.8613 46.585 25.2031C47.0342 25.4473 47.4395 25.7451 47.8008 26.0967C48.1621 26.4482 48.4648 26.834 48.709 27.2539C48.9531 27.6738 49.1484 28.1328 49.2949 28.6309C49.4414 29.1289 49.5098 29.627 49.5 30.125H47.625C47.625 29.6074 47.5273 29.124 47.332 28.6748C47.1367 28.2256 46.8682 27.8252 46.5264 27.4736C46.1846 27.1221 45.7891 26.8535 45.3398 26.668C44.8906 26.4824 44.4023 26.3848 43.875 26.375C43.3574 26.375 42.874 26.4727 42.4248 26.668C41.9756 26.8633 41.5752 27.1318 41.2236 27.4736C40.8721 27.8154 40.6035 28.2109 40.418 28.6602C40.2324 29.1094 40.1348 29.5977 40.125 30.125H38.25C38.25 29.6074 38.1523 29.124 37.957 28.6748C37.7617 28.2256 37.4932 27.8252 37.1514 27.4736C36.8096 27.1221 36.4141 26.8535 35.9648 26.668C35.5156 26.4824 35.0273 26.3848 34.5 26.375C34.0215 26.375 33.5576 26.4629 33.1084 26.6387C32.6592 26.8145 32.2637 27.0732 31.9219 27.415C32.1562 27.8252 32.332 28.2598 32.4492 28.7188C32.5664 29.1777 32.625 29.6465 32.625 30.125ZM43.875 20.75C43.6113 20.75 43.3672 20.7988 43.1426 20.8965C42.918 20.9941 42.7227 21.126 42.5566 21.292C42.3906 21.458 42.2539 21.6582 42.1465 21.8926C42.0391 22.127 41.9902 22.3711 42 22.625C42 22.8887 42.0488 23.1328 42.1465 23.3574C42.2441 23.582 42.376 23.7773 42.542 23.9434C42.708 24.1094 42.9082 24.2461 43.1426 24.3535C43.377 24.4609 43.6211 24.5098 43.875 24.5C44.1387 24.5 44.3828 24.4512 44.6074 24.3535C44.832 24.2559 45.0273 24.124 45.1934 23.958C45.3594 23.792 45.4961 23.5918 45.6035 23.3574C45.7109 23.123 45.7598 22.8789 45.75 22.625C45.75 22.3613 45.7012 22.1172 45.6035 21.8926C45.5059 21.668 45.374 21.4727 45.208 21.3066C45.042 21.1406 44.8418 21.0039 44.6074 20.8965C44.373 20.7891 44.1289 20.7402 43.875 20.75ZM34.5 20.75C34.2363 20.75 33.9922 20.7988 33.7676 20.8965C33.543 20.9941 33.3477 21.126 33.1816 21.292C33.0156 21.458 32.8789 21.6582 32.7715 21.8926C32.6641 22.127 32.6152 22.3711 32.625 22.625C32.625 22.8887 32.6738 23.1328 32.7715 23.3574C32.8691 23.582 33.001 23.7773 33.167 23.9434C33.333 24.1094 33.5332 24.2461 33.7676 24.3535C34.002 24.4609 34.2461 24.5098 34.5 24.5C34.7637 24.5 35.0078 24.4512 35.2324 24.3535C35.457 24.2559 35.6523 24.124 35.8184 23.958C35.9844 23.792 36.1211 23.5918 36.2285 23.3574C36.3359 23.123 36.3848 22.8789 36.375 22.625C36.375 22.3613 36.3262 22.1172 36.2285 21.8926C36.1309 21.668 35.999 21.4727 35.833 21.3066C35.667 21.1406 35.4668 21.0039 35.2324 20.8965C34.998 20.7891 34.7539 20.7402 34.5 20.75ZM27 33.875C27.5176 33.875 28.001 33.7773 28.4502 33.582C28.8994 33.3867 29.2998 33.1182 29.6514 32.7764C30.0029 32.4346 30.2715 32.0391 30.457 31.5898C30.6426 31.1406 30.7402 30.6523 30.75 30.125C30.75 29.6074 30.6523 29.124 30.457 28.6748C30.2617 28.2256 29.9932 27.8252 29.6514 27.4736C29.3096 27.1221 28.9141 26.8535 28.4648 26.668C28.0156 26.4824 27.5273 26.3848 27 26.375C26.4824 26.375 25.999 26.4727 25.5498 26.668C25.1006 26.8633 24.7002 27.1318 24.3486 27.4736C23.9971 27.8154 23.7285 28.2109 23.543 28.6602C23.3574 29.1094 23.2598 29.5977 23.25 30.125C23.25 30.6426 23.3477 31.126 23.543 31.5752C23.7383 32.0244 24.0068 32.4248 24.3486 32.7764C24.6904 33.1279 25.0859 33.3965 25.5352 33.582C25.9844 33.7676 26.4727 33.8652 27 33.875Z" fill="white"/>
<defs>
<linearGradient id="paint0_linear_123_538" x1="70" y1="70" x2="-28.0893" y2="41.126" gradientUnits="userSpaceOnUse">
<stop stop-color="#6D5A9B"/>
<stop offset="1" stop-color="#9D7BEF"/>
</linearGradient>
</defs>
</svg>
