<svg width="80" height="80" viewBox="0 0 80 80" fill="none" xmlns="http://www.w3.org/2000/svg">
<rect opacity="0.2" x="10" y="10" width="70" height="70" rx="10" fill="#F361F5"/>
<rect width="70" height="70" rx="10" fill="url(#paint0_linear_123_505)"/>
<path d="M22.0938 29.2633C21.8895 28.3432 21.9209 27.3863 22.185 26.4815C22.4491 25.5766 22.9374 24.7531 23.6046 24.0873C24.2718 23.4215 25.0963 22.935 26.0017 22.6728C26.907 22.4105 27.864 22.3812 28.7837 22.5874C29.2899 21.7957 29.9873 21.1441 30.8116 20.6928C31.6359 20.2414 32.5605 20.0049 33.5003 20.0049C34.44 20.0049 35.3646 20.2414 36.1889 20.6928C37.0132 21.1441 37.7106 21.7957 38.2168 22.5874C39.138 22.3803 40.0965 22.4095 41.0033 22.6724C41.9102 22.9352 42.7358 23.4231 43.4034 24.0907C44.071 24.7584 44.5589 25.584 44.8218 26.4908C45.0846 27.3976 45.1139 28.3562 44.9068 29.2773C45.6985 29.7836 46.35 30.481 46.8014 31.3052C47.2527 32.1295 47.4893 33.0541 47.4893 33.9939C47.4893 34.9336 47.2527 35.8583 46.8014 36.6825C46.35 37.5068 45.6985 38.2042 44.9068 38.7104C45.113 39.6302 45.0836 40.5871 44.8214 41.4925C44.5592 42.3979 44.0726 43.2224 43.4068 43.8896C42.741 44.5568 41.9175 45.0451 41.0127 45.3092C40.1078 45.5733 39.151 45.6047 38.2308 45.4004C37.7252 46.1951 37.0273 46.8495 36.2016 47.3028C35.3759 47.7562 34.4492 47.9939 33.5073 47.9939C32.5653 47.9939 31.6386 47.7562 30.8129 47.3028C29.9872 46.8495 29.2893 46.1951 28.7837 45.4004C27.864 45.6066 26.907 45.5772 26.0017 45.315C25.0963 45.0528 24.2718 44.5662 23.6046 43.9004C22.9374 43.2346 22.4491 42.4111 22.185 41.5063C21.9209 40.6015 21.8895 39.6446 22.0938 38.7244C21.296 38.2195 20.6388 37.521 20.1834 36.694C19.728 35.8669 19.4893 34.938 19.4893 33.9939C19.4893 33.0497 19.728 32.1209 20.1834 31.2938C20.6388 30.4667 21.296 29.7682 22.0938 29.2633Z" stroke="white" stroke-width="3" stroke-linecap="round" stroke-linejoin="round"/>
<path d="M29.3013 33.994L32.1004 36.7931L37.6987 31.1948" stroke="white" stroke-width="3" stroke-linecap="round" stroke-linejoin="round"/>
<defs>
<linearGradient id="paint0_linear_123_505" x1="70" y1="70" x2="-12.8132" y2="47.8024" gradientUnits="userSpaceOnUse">
<stop stop-color="#EF57F2"/>
<stop offset="1" stop-color="#FD7FFF"/>
</linearGradient>
</defs>
</svg>
