<svg width="68" height="116" viewBox="0 0 68 116" fill="none" xmlns="http://www.w3.org/2000/svg">
<path opacity="0.4" d="M5.11802 64.9967L6.06403 64.6726L5.11802 64.9967ZM67.3551 114.217L60.3487 105.039L55.9031 115.696L67.3551 114.217ZM3.32642 0.850342C2.33372 0.729668 2.33372 0.729681 2.33372 0.729697C2.33372 0.729704 2.33372 0.729721 2.33372 0.729737C2.33371 0.729767 2.33371 0.729805 2.3337 0.729851C2.33369 0.729943 2.33368 0.730066 2.33366 0.730219C2.33362 0.730526 2.33357 0.730956 2.3335 0.731509C2.33337 0.732614 2.33317 0.73421 2.33292 0.736295C2.33242 0.740463 2.33168 0.746586 2.33071 0.754641C2.32878 0.770751 2.32593 0.794594 2.3222 0.826006C2.31476 0.888831 2.30382 0.981938 2.28973 1.10403C2.26156 1.34821 2.2208 1.70835 2.17022 2.17406L4.15852 2.39003C4.20861 1.92893 4.24887 1.57321 4.27656 1.33325C4.2904 1.21326 4.30109 1.12222 4.3083 1.06142C4.31191 1.03102 4.31464 1.00817 4.31645 0.993052C4.31736 0.985491 4.31804 0.979861 4.31848 0.976182C4.31871 0.974342 4.31887 0.97299 4.31897 0.972128C4.31903 0.971697 4.31906 0.971389 4.31909 0.971203C4.3191 0.97111 4.3191 0.971048 4.31911 0.971017C4.31911 0.971001 4.31911 0.970994 4.31911 0.970993C4.31911 0.970993 4.31911 0.970999 4.31911 0.970999C4.31911 0.971006 4.31911 0.971016 3.32642 0.850342ZM1.86892 5.11927C1.78476 5.98975 1.69365 6.97359 1.59954 8.05595L3.59202 8.2292C3.68555 7.1536 3.77607 6.17617 3.85963 5.31172L1.86892 5.11927ZM1.35835 10.9833C1.28569 11.9163 1.21321 12.8983 1.14259 13.9229L3.13786 14.0604C3.20805 13.042 3.28009 12.066 3.35232 11.1386L1.35835 10.9833ZM0.953604 16.857C0.896401 17.8123 0.841799 18.7956 0.790918 19.8025L2.78837 19.9034C2.83892 18.903 2.89318 17.9259 2.95003 16.9765L0.953604 16.857ZM0.656284 22.7487C0.616958 23.7129 0.581681 24.6939 0.551329 25.6882L2.5504 25.7493C2.58053 24.762 2.61556 23.7879 2.65462 22.8302L0.656284 22.7487ZM0.477389 28.6325C0.45832 29.6064 0.444543 30.5897 0.436823 31.5796L2.43676 31.5952C2.44442 30.6135 2.45808 29.638 2.47701 28.6716L0.477389 28.6325ZM0.432415 34.5284C0.43731 35.5089 0.448759 36.4931 0.467487 37.4783L2.46713 37.4402C2.44858 36.4649 2.43724 35.4901 2.43239 34.5184L0.432415 34.5284ZM0.546049 40.4283C0.580081 41.414 0.622145 42.3981 0.672976 43.3778L2.67029 43.2741C2.62009 42.3066 2.57851 41.3341 2.54486 40.3593L0.546049 40.4283ZM0.85425 46.3254C0.925179 47.3168 1.0061 48.301 1.0978 49.2749L3.08899 49.0874C2.99878 48.1293 2.91908 47.1601 2.84915 46.1827L0.85425 46.3254ZM1.41316 52.2219C1.53323 53.2176 1.66609 54.1991 1.81269 55.163L3.78995 54.8622C3.64668 53.9202 3.51656 52.9592 3.39878 51.9824L1.41316 52.2219ZM2.31252 58.0924C2.50206 59.0871 2.7088 60.058 2.934 61.0007L4.87927 60.536C4.66186 59.6259 4.46148 58.6853 4.27717 57.718L2.31252 58.0924ZM3.71433 63.8998C3.86069 64.3833 4.01318 64.8573 4.17201 65.3208L6.06403 64.6726C5.91345 64.2331 5.76833 63.7821 5.62855 63.3203L3.71433 63.8998ZM4.17201 65.3208C4.33249 65.7893 4.50442 66.2554 4.68733 66.7191L6.54786 65.9854C6.37582 65.5491 6.21443 65.1115 6.06403 64.6726L4.17201 65.3208ZM5.89919 69.4453C6.33469 70.3261 6.80817 71.1977 7.31635 72.0599L9.0393 71.0443C8.55459 70.222 8.10462 69.3934 7.692 68.5589L5.89919 69.4453ZM8.90518 74.5635C9.45438 75.3715 10.0327 76.1708 10.6375 76.9608L12.2256 75.7452C11.6425 74.9833 11.0862 74.2145 10.5593 73.4393L8.90518 74.5635ZM12.4901 79.2584C13.1201 80.002 13.7723 80.7371 14.4443 81.4632L15.9122 80.1047C15.259 79.3989 14.6262 78.6857 14.0161 77.9655L12.4901 79.2584ZM16.4848 83.5822C17.1737 84.2708 17.8792 84.9509 18.599 85.622L19.9629 84.1592C19.2591 83.5031 18.5704 82.8391 17.8987 82.1677L16.4848 83.5822ZM20.7767 87.5886C21.5093 88.23 22.2539 88.8626 23.0083 89.4863L24.2826 87.9448C23.5421 87.3326 22.8119 86.7122 22.0942 86.0838L20.7767 87.5886ZM25.2882 91.3215C26.0556 91.9233 26.8308 92.516 27.6119 93.0993L28.8086 91.4969C28.0396 90.9226 27.2769 90.3394 26.5224 89.7477L25.2882 91.3215ZM29.9741 94.8234C30.7697 95.391 31.5692 95.9489 32.3706 96.4968L33.4993 94.8457C32.7085 94.3051 31.92 93.7549 31.1358 93.1953L29.9741 94.8234ZM34.7975 98.1224C35.6163 98.66 36.4351 99.1868 37.2517 99.7027L38.3199 98.0119C37.5128 97.502 36.7038 96.9814 35.8951 96.4505L34.7975 98.1224ZM39.7306 101.24C40.5699 101.751 41.4046 102.25 42.2324 102.737L43.2459 101.013C42.4268 100.531 41.601 100.038 40.7708 99.532L39.7306 101.24ZM44.7559 104.195C45.6156 104.683 46.4648 105.158 47.3006 105.617L48.2637 103.864C47.4359 103.409 46.5949 102.94 45.7438 102.456L44.7559 104.195ZM49.8666 107.004C50.7499 107.473 51.6136 107.925 52.4541 108.357L53.3693 106.579C52.5365 106.15 51.6807 105.703 50.8056 105.238L49.8666 107.004ZM55.0617 109.678C55.9744 110.132 56.8503 110.561 57.6839 110.962L58.5517 109.16C57.7258 108.762 56.8578 108.338 55.9534 107.887L55.0617 109.678ZM60.3013 112.201C61.2856 112.659 62.1815 113.066 62.9749 113.421L63.7913 111.595C63.0065 111.244 62.1196 110.841 61.1447 110.388L60.3013 112.201Z" fill="#2C2738"/>
</svg>
