<svg width="218" height="35" viewBox="0 0 218 35" fill="none" xmlns="http://www.w3.org/2000/svg">
<path opacity="0.4" d="M93.6782 33.2451L93.8059 32.2533L93.6782 33.2451ZM217.178 5.24512L205.695 4.0334L210.387 14.584L217.178 5.24512ZM0.678223 1.74512C0.253991 2.65067 0.254 2.65067 0.25401 2.65068C0.254016 2.65068 0.254029 2.65069 0.254041 2.65069C0.254065 2.65071 0.254096 2.65072 0.254135 2.65074C0.254213 2.65077 0.25432 2.65082 0.254456 2.65089C0.254729 2.65102 0.25512 2.6512 0.255628 2.65144C0.256644 2.65191 0.25813 2.65261 0.260084 2.65352C0.263993 2.65535 0.269774 2.65806 0.277412 2.66162C0.292689 2.66876 0.315396 2.67936 0.345413 2.69335C0.405447 2.72133 0.494724 2.76286 0.612285 2.81735C0.847408 2.92633 1.19568 3.08716 1.64945 3.29508L2.48256 1.47686C2.03154 1.2702 1.68592 1.1106 1.45335 1.0028C1.33706 0.948898 1.24904 0.90795 1.19024 0.880547C1.16084 0.866845 1.13875 0.85653 1.12407 0.849674C1.11674 0.846247 1.11126 0.843684 1.10765 0.841996C1.10585 0.841152 1.10451 0.840526 1.10364 0.840121C1.10321 0.839918 1.10289 0.83977 1.1027 0.839677C1.1026 0.83963 1.10253 0.839598 1.10249 0.839579C1.10247 0.839569 1.10245 0.839563 1.10245 0.839561C1.10245 0.83956 1.10245 0.83956 1.10245 0.83956C1.10245 0.839561 1.10245 0.839564 0.678223 1.74512ZM4.4494 4.56481C5.27897 4.93757 6.22059 5.35792 7.26426 5.81965L8.07343 3.99065C7.03343 3.53054 6.09534 3.11177 5.26914 2.74052L4.4494 4.56481ZM10.0955 7.06324C10.9857 7.4515 11.9268 7.85944 12.9149 8.28457L13.7054 6.44741C12.7204 6.02363 11.7823 5.61701 10.8951 5.23002L10.0955 7.06324ZM15.7487 9.49571C16.6651 9.88476 17.6133 10.2847 18.5906 10.6941L19.3632 8.84936C18.389 8.44129 17.4438 8.04257 16.5303 7.65473L15.7487 9.49571ZM21.4391 11.8791C22.3697 12.2636 23.3222 12.6546 24.2947 13.0508L25.0494 11.1987C24.08 10.8037 23.1305 10.414 22.2029 10.0307L21.4391 11.8791ZM27.158 14.2091C28.0996 14.5873 29.0571 14.9691 30.029 15.3537L30.7648 13.494C29.7962 13.1107 28.8419 12.7302 27.9033 12.3532L27.158 14.2091ZM32.8916 16.4777C33.838 16.8464 34.7961 17.2167 35.7645 17.5879L36.4803 15.7204C35.5154 15.3506 34.5607 14.9815 33.6176 14.6141L32.8916 16.4777ZM38.6478 18.6838C39.6039 19.044 40.5685 19.4043 41.5405 19.7639L42.2345 17.8882C41.2663 17.53 40.3054 17.1711 39.353 16.8122L38.6478 18.6838ZM44.4404 20.8267C45.4012 21.1754 46.3679 21.5228 47.3395 21.8683L48.0095 19.9838C47.0421 19.6399 46.0795 19.294 45.1227 18.9467L44.4404 20.8267ZM50.2499 22.8918C51.2196 23.229 52.1932 23.5637 53.1694 23.8952L53.8124 22.0014C52.841 21.6715 51.8721 21.3384 50.9068 21.0027L50.2499 22.8918ZM56.0959 24.8763C57.0727 25.1995 58.0511 25.5188 59.0301 25.8337L59.6425 23.9297C58.6689 23.6166 57.6958 23.299 56.7241 22.9775L56.0959 24.8763ZM61.9746 26.7663C62.9595 27.0733 63.944 27.3752 64.9271 27.6713L65.5038 25.7563C64.5271 25.4621 63.5488 25.1621 62.5698 24.8569L61.9746 26.7663ZM67.8859 28.5457C68.8805 28.8339 69.8726 29.1155 70.8611 29.3897L71.3957 27.4625C70.4149 27.1904 69.4301 26.9109 68.4425 26.6247L67.8859 28.5457ZM73.8477 30.1983C74.8515 30.4632 75.8505 30.7197 76.8433 30.967L77.3267 29.0263C76.3433 28.7813 75.3533 28.5272 74.3581 28.2645L73.8477 30.1983ZM79.8471 31.6912C80.8604 31.9271 81.8659 32.1523 82.8624 32.3662L83.282 30.4107C82.2974 30.1994 81.3031 29.9767 80.3006 29.7433L79.8471 31.6912ZM85.9041 32.9883C86.9344 33.1882 87.9532 33.3745 88.9591 33.5461L89.2955 31.5746C88.3054 31.4056 87.3014 31.2221 86.2851 31.0249L85.9041 32.9883ZM92.0283 34.0295C92.5397 34.1029 93.0472 34.1721 93.5506 34.2369L93.8059 32.2533C93.3126 32.1898 92.8148 32.1219 92.3127 32.0498L92.0283 34.0295ZM93.5506 34.2369C94.0532 34.3016 94.5587 34.362 95.0667 34.4181L95.2862 32.4302C94.7899 32.3754 94.2964 32.3164 93.8059 32.2533L93.5506 34.2369ZM98.1457 34.7043C99.1559 34.7811 100.175 34.8424 101.203 34.8888L101.293 32.8908C100.285 32.8453 99.2864 32.7852 98.2974 32.71L98.1457 34.7043ZM104.278 34.9835C105.297 35.0006 106.322 35.0042 107.355 34.9947L107.336 32.9948C106.321 33.0041 105.312 33.0006 104.312 32.9837L104.278 34.9835ZM110.416 34.9297C111.435 34.8961 112.459 34.8506 113.488 34.7939L113.378 32.7969C112.363 32.8529 111.354 32.8977 110.35 32.9308L110.416 34.9297ZM116.543 34.5937C117.557 34.517 118.575 34.43 119.597 34.3332L119.408 32.3421C118.399 32.4378 117.393 32.5237 116.392 32.5994L116.543 34.5937ZM122.648 34.0164C123.658 33.9026 124.67 33.7799 125.683 33.6486L125.427 31.6651C124.423 31.795 123.422 31.9165 122.424 32.029L122.648 34.0164ZM128.721 33.231C129.727 33.0848 130.735 32.9307 131.743 32.7692L131.426 30.7944C130.428 30.9544 129.43 31.107 128.433 31.2518L128.721 33.231ZM134.762 32.2639C135.765 32.089 136.769 31.9071 137.771 31.7188L137.402 29.7532C136.408 29.9399 135.413 30.1202 134.418 30.2937L134.762 32.2639ZM140.774 31.1357C141.773 30.9353 142.771 30.729 143.768 30.517L143.351 28.5608C142.362 28.7711 141.372 28.976 140.381 29.1748L140.774 31.1357ZM146.755 29.8639C147.75 29.6407 148.743 29.4123 149.733 29.1792L149.275 27.2325C148.291 27.464 147.305 27.6908 146.318 27.9125L146.755 29.8639ZM152.705 28.4633C153.697 28.2191 154.685 27.9706 155.669 27.7181L155.173 25.7808C154.194 26.0317 153.212 26.2787 152.227 26.5213L152.705 28.4633ZM158.622 26.9461C159.612 26.6824 160.596 26.4153 161.576 26.145L161.044 24.2171C160.07 24.4858 159.091 24.7514 158.107 25.0135L158.622 26.9461ZM164.509 25.3218C165.496 25.0402 166.476 24.756 167.45 24.4695L166.885 22.5509C165.917 22.8358 164.942 23.1185 163.96 23.3985L164.509 25.3218ZM170.376 23.5957C171.355 23.2989 172.326 23.0004 173.289 22.7006L172.694 20.7911C171.736 21.0894 170.77 21.3864 169.796 21.6817L170.376 23.5957ZM176.21 21.7781C177.187 21.4659 178.152 21.1529 179.107 20.8398L178.484 18.9394C177.534 19.251 176.573 19.5625 175.601 19.8732L176.21 21.7781ZM182.007 19.8772C182.987 19.548 183.953 19.2193 184.906 18.8918L184.255 17.0005C183.307 17.3265 182.345 17.6537 181.37 17.9814L182.007 19.8772ZM187.78 17.8924C188.755 17.5496 189.713 17.2088 190.654 16.8709L189.977 14.9887C189.041 15.3251 188.087 15.6643 187.116 16.0056L187.78 17.8924ZM193.536 15.8241C194.514 15.4655 195.469 15.1112 196.4 14.7625L195.698 12.8896C194.771 13.2368 193.821 13.5895 192.848 13.9465L193.536 15.8241ZM199.245 13.6855C200.222 13.3123 201.167 12.9472 202.078 12.5915L201.351 10.7283C200.444 11.0823 199.503 11.4458 198.531 11.8174L199.245 13.6855ZM204.919 11.4721C205.913 11.0763 206.857 10.696 207.749 10.3335L206.996 8.48071C206.109 8.84144 205.168 9.21999 204.179 9.61399L204.919 11.4721ZM210.586 9.16731C211.644 8.72787 212.594 8.32747 213.427 7.97232L212.644 6.13227C211.815 6.48522 210.871 6.88335 209.819 7.32046L210.586 9.16731Z" fill="#2C2738"/>
</svg>
