<svg width="81" height="142" viewBox="0 0 81 142" fill="none" xmlns="http://www.w3.org/2000/svg">
<path opacity="0.4" d="M71.484 76.5149L70.5475 76.164L71.484 76.5149ZM0.950383 141.486L6.9327 131.61L12.4948 141.729L0.950383 141.486ZM79.231 0.999756C80.2304 0.967121 80.2304 0.967133 80.2304 0.967147C80.2304 0.967154 80.2304 0.96717 80.2304 0.967184C80.2304 0.967213 80.2304 0.967249 80.2304 0.967293C80.2304 0.967382 80.2304 0.967501 80.2304 0.967651C80.2305 0.967951 80.2305 0.968375 80.2305 0.968923C80.2305 0.970017 80.2306 0.971605 80.2306 0.973685C80.2308 0.977843 80.231 0.983965 80.2312 0.992033C80.2317 1.00817 80.2325 1.03209 80.2334 1.06364C80.2353 1.12674 80.238 1.22038 80.2414 1.34335C80.2481 1.58929 80.2574 1.95259 80.2676 2.42368L78.2681 2.46702C78.258 1.99988 78.2488 1.64038 78.2422 1.39808C78.2388 1.27693 78.2362 1.18509 78.2343 1.12374C78.2334 1.09307 78.2327 1.07002 78.2322 1.05474C78.232 1.04711 78.2318 1.04141 78.2317 1.03768C78.2316 1.03582 78.2316 1.03444 78.2315 1.03356C78.2315 1.03312 78.2315 1.0328 78.2315 1.0326C78.2315 1.03251 78.2315 1.03244 78.2315 1.0324C78.2315 1.03239 78.2315 1.03238 78.2315 1.03237C78.2315 1.03237 78.2315 1.03238 78.2315 1.03238C78.2315 1.03238 78.2315 1.03239 79.231 0.999756ZM80.316 5.36407C80.3263 6.23372 80.3347 7.21807 80.3389 8.304L78.3389 8.31186C78.3347 7.23144 78.3264 6.25237 78.3161 5.38772L80.316 5.36407ZM80.3396 11.2677C80.3365 12.1944 80.33 13.1711 80.3194 14.1924L78.3195 14.1716C78.3301 13.1552 78.3365 12.1832 78.3396 11.2609L80.3396 11.2677ZM80.2785 17.1316C80.262 18.0842 80.2416 19.0665 80.2169 20.075L78.2175 20.0261C78.2421 19.0224 78.2623 18.0448 78.2788 17.0969L80.2785 17.1316ZM80.1342 23.0181C80.1037 23.9803 80.0691 24.9616 80.0299 25.9594L78.0315 25.881C78.0704 24.8884 78.1049 23.912 78.1353 22.9546L80.1342 23.0181ZM79.9032 28.899C79.8577 29.8668 79.8077 30.8469 79.753 31.8372L77.7561 31.7269C77.8105 30.7423 77.8601 29.7676 77.9054 28.805L79.9032 28.899ZM79.5782 34.7743C79.5161 35.7463 79.4492 36.7256 79.3772 37.7105L77.3825 37.5646C77.454 36.5861 77.5205 35.6129 77.5822 34.6468L79.5782 34.7743ZM79.1483 40.6456C79.0674 41.6207 78.9813 42.5992 78.8895 43.5792L76.8982 43.3929C76.9893 42.4201 77.0748 41.4486 77.1551 40.4802L79.1483 40.6456ZM78.5986 46.511C78.4959 47.4883 78.3873 48.4653 78.2727 49.4401L76.2863 49.2064C76.4 48.2402 76.5077 47.2714 76.6095 46.302L78.5986 46.511ZM77.9086 52.3658C77.7799 53.3443 77.6447 54.3187 77.5025 55.2872L75.5237 54.9966C75.6644 54.0386 75.7982 53.0741 75.9256 52.1051L77.9086 52.3658ZM77.0498 58.2031C76.8893 59.1817 76.7211 60.1521 76.545 61.1123L74.5778 60.7514C74.7516 59.8042 74.9176 58.8462 75.0762 57.8794L77.0498 58.2031ZM75.981 64.0134C75.7798 64.9911 75.5693 65.9555 75.3493 66.9042L73.401 66.4525C73.6171 65.5208 73.824 64.5726 74.0221 63.6102L75.981 64.0134ZM74.639 69.7819C74.3829 70.7563 74.1154 71.7105 73.8358 72.6416L71.9203 72.0665C72.1927 71.1592 72.454 70.2273 72.7046 69.2736L74.639 69.7819ZM72.9214 75.4759C72.7581 75.9466 72.5911 76.4101 72.4204 76.8658L70.5475 76.164C70.7123 75.7243 70.8737 75.2763 71.0319 74.8203L72.9214 75.4759ZM72.4204 76.8658C72.2403 77.3463 72.0516 77.826 71.8545 78.3047L70.0051 77.5433C70.1942 77.0839 70.3751 76.6241 70.5475 76.164L72.4204 76.8658ZM70.5856 81.141C70.1399 82.0643 69.6647 82.9835 69.1622 83.8981L67.4094 82.935C67.8958 82.0497 68.3547 81.1617 68.7844 80.2716L70.5856 81.141ZM67.6052 86.5779C67.0725 87.4479 66.5163 88.3134 65.9386 89.1738L64.2782 88.0589C64.8411 87.2206 65.3821 86.3786 65.8996 85.5335L67.6052 86.5779ZM64.1719 91.699C63.5715 92.5242 62.9524 93.3443 62.3163 94.159L60.74 92.9281C61.3628 92.1305 61.9682 91.3285 62.5546 90.5224L64.1719 91.699ZM60.3825 96.5572C59.7293 97.3426 59.0612 98.1225 58.3799 98.8965L56.8787 97.575C57.5482 96.8145 58.204 96.0488 58.8448 95.2783L60.3825 96.5572ZM56.3214 101.175C55.6278 101.923 54.9228 102.666 54.2078 103.402L52.7732 102.008C53.4777 101.283 54.1719 100.552 54.8545 99.8152L56.3214 101.175ZM52.0443 105.58C51.3165 106.298 50.5803 107.009 49.8371 107.712L48.4619 106.26C49.1958 105.565 49.9224 104.864 50.6403 104.156L52.0443 105.58ZM47.591 109.799C46.835 110.489 46.0733 111.171 45.3074 111.846L43.9856 110.345C44.7431 109.678 45.4961 109.003 46.2432 108.322L47.591 109.799ZM42.9905 113.853C42.2109 114.517 41.4284 115.173 40.6445 115.82L39.3708 114.278C40.1471 113.637 40.9218 112.988 41.6933 112.33L42.9905 113.853ZM38.2713 117.751C37.4691 118.395 36.6668 119.029 35.866 119.653L34.6365 118.075C35.4303 117.457 36.2253 116.828 37.0202 116.191L38.2713 117.751ZM33.437 121.52C32.6166 122.143 31.7994 122.754 30.9871 123.355L29.7984 121.746C30.6042 121.151 31.4147 120.544 32.2283 119.927L33.437 121.52ZM28.5185 125.156C27.6819 125.759 26.8526 126.349 26.0324 126.926L24.8818 125.29C25.6959 124.718 26.519 124.132 27.3491 123.534L28.5185 125.156ZM23.5169 128.674C22.6583 129.264 21.8125 129.838 20.9819 130.395L19.8678 128.734C20.6926 128.181 21.5323 127.611 22.3847 127.026L23.5169 128.674ZM18.4302 132.086C17.5518 132.662 16.6949 133.217 15.8626 133.75L14.7842 132.065C15.6108 131.536 16.4617 130.985 17.3339 130.414L18.4302 132.086ZM13.2812 135.383C12.3787 135.948 11.514 136.482 10.6921 136.983L9.64981 135.276C10.4659 134.778 11.3245 134.248 12.2207 133.688L13.2812 135.383ZM8.04811 138.577C7.08164 139.152 6.20306 139.667 5.42454 140.117L4.42304 138.386C5.19477 137.94 6.06627 137.429 7.02536 136.859L8.04811 138.577Z" fill="#2C2738"/>
</svg>
