<svg width="161" height="32" viewBox="0 0 161 32" fill="none" xmlns="http://www.w3.org/2000/svg">
<path opacity="0.4" d="M160.931 0.782227L155.216 10.8158L149.384 0.849764L160.931 0.782227ZM91.0623 30.4621L90.9174 29.4726L91.0623 30.4621ZM0.108844 0.0689768L11.6463 0.538606L5.47086 10.2955L0.108844 0.0689768ZM157.633 3.83977C156.877 4.26871 156.019 4.75135 155.07 5.27945L154.097 3.53187C155.041 3.00645 155.895 2.5264 156.647 2.09993L157.633 3.83977ZM152.475 6.71111C151.662 7.15586 150.803 7.62184 149.904 8.10566L148.957 6.34433C149.852 5.8628 150.706 5.39905 151.515 4.95645L152.475 6.71111ZM147.31 9.48916C146.468 9.93459 145.598 10.3911 144.703 10.8565L143.781 9.08199C144.671 8.61886 145.537 8.16455 146.375 7.72124L147.31 9.48916ZM142.086 12.2052C141.229 12.6431 140.353 13.0866 139.46 13.5341L138.564 11.7462C139.452 11.301 140.323 10.8597 141.176 10.424L142.086 12.2052ZM136.825 14.8426C135.955 15.27 135.073 15.6996 134.179 16.1298L133.311 14.3278C134.2 13.9 135.077 13.4729 135.942 13.0477L136.825 14.8426ZM131.523 17.3949C130.642 17.8099 129.752 18.2242 128.854 18.6367L128.019 16.8196C128.91 16.4097 129.795 15.998 130.671 15.5855L131.523 17.3949ZM126.174 19.8535C125.281 20.2535 124.382 20.6506 123.48 21.0435L122.681 19.2098C123.577 18.8198 124.469 18.4256 125.356 18.0283L126.174 19.8535ZM120.772 22.2044C119.867 22.5863 118.959 22.9631 118.05 23.3334L117.295 21.4811C118.196 21.1141 119.096 20.7406 119.995 20.3617L120.772 22.2044ZM115.312 24.4273C114.393 24.7871 113.474 25.1391 112.557 25.4823L111.856 23.6092C112.763 23.2697 113.672 22.9213 114.583 22.5649L115.312 24.4273ZM109.785 26.4939C108.851 26.8259 107.92 27.1472 106.994 27.4566L106.36 25.5596C107.274 25.2545 108.193 24.9373 109.116 24.6093L109.785 26.4939ZM104.181 28.3636C103.228 28.6594 102.282 28.9408 101.345 29.2063L100.8 27.282C101.72 27.0213 102.65 26.7447 103.588 26.4534L104.181 28.3636ZM98.4818 29.9738C97.5049 30.2201 96.5401 30.4465 95.5897 30.6513L95.1684 28.6962C96.0945 28.4967 97.0367 28.2755 97.9929 28.0345L98.4818 29.9738ZM92.6663 31.2192C92.1752 31.3035 91.6887 31.381 91.2072 31.4515L90.9174 29.4726C91.382 29.4046 91.8522 29.3296 92.328 29.248L92.6663 31.2192ZM91.2072 31.4515C90.6994 31.5259 90.1883 31.5922 89.6739 31.6508L89.4476 29.6637C89.9413 29.6074 90.4313 29.5438 90.9174 29.4726L91.2072 31.4515ZM86.5775 31.9091C85.5538 31.9647 84.5194 31.9925 83.4758 31.9941L83.4728 29.9941C84.4829 29.9925 85.4821 29.9657 86.4691 29.9121L86.5775 31.9091ZM80.3773 31.9246C79.3582 31.8782 78.3317 31.8091 77.2993 31.7186L77.4739 29.7263C78.4798 29.8144 79.4783 29.8816 80.4682 29.9267L80.3773 31.9246ZM74.2349 31.3909C73.2224 31.2636 72.2053 31.1175 71.1847 30.9538L71.5014 28.9791C72.5006 29.1393 73.4953 29.2822 74.4843 29.4065L74.2349 31.3909ZM68.1509 30.4184C67.1476 30.2256 66.1421 30.0172 65.1353 29.7943L65.5677 27.8416C66.5569 28.0606 67.5442 28.2652 68.5283 28.4543L68.1509 30.4184ZM62.1464 29.0918C61.156 28.8458 60.1654 28.5869 59.1756 28.3162L59.7032 26.3871C60.6785 26.6538 61.6539 26.9087 62.6285 27.1508L62.1464 29.0918ZM56.223 27.4738C55.2433 27.1829 54.2654 26.8814 53.2902 26.5704L53.8979 24.6649C54.8608 24.972 55.8259 25.2695 56.7923 25.5565L56.223 27.4738ZM50.3781 25.6113C49.4092 25.2822 48.444 24.9446 47.4835 24.5997L48.1595 22.7174C49.1095 23.0586 50.0637 23.3923 51.0213 23.7175L50.3781 25.6113ZM44.6073 23.5397C43.6492 23.1778 42.6968 22.8094 41.7513 22.4355L42.4867 20.5756C43.423 20.9459 44.3658 21.3106 45.314 21.6688L44.6073 23.5397ZM38.9144 21.2898C37.9637 20.8979 37.0212 20.5014 36.088 20.1016L36.8757 18.2632C37.8007 18.6596 38.7348 19.0525 39.6767 19.4408L38.9144 21.2898ZM33.2797 18.8764C32.3385 18.4585 31.4084 18.0382 30.4904 17.6167L31.3249 15.7991C32.2355 16.2172 33.1581 16.634 34.0914 17.0485L33.2797 18.8764ZM27.7207 16.3249C26.7888 15.8835 25.8716 15.4422 24.9704 15.0025L25.8473 13.205C26.7419 13.6414 27.6522 14.0794 28.5769 14.5174L27.7207 16.3249ZM22.2248 13.6438C21.294 13.1766 20.3832 12.713 19.4942 12.2546L20.4108 10.477C21.2935 10.9321 22.1978 11.3925 23.1219 11.8562L22.2248 13.6438ZM16.7807 10.837C15.8525 10.3458 14.953 9.86323 14.0845 9.39169L15.0387 7.63401C15.9013 8.10229 16.7945 8.58151 17.7162 9.0693L16.7807 10.837ZM11.4075 7.92002C10.4774 7.40226 9.59236 6.9028 8.75599 6.42536L9.7475 4.68843C10.5779 5.16245 11.4567 5.65838 12.3803 6.17254L11.4075 7.92002ZM6.08347 4.87976C5.11317 4.31114 4.23849 3.79014 3.46817 3.32587L4.50057 1.61294C5.26416 2.07316 6.13178 2.58995 7.09467 3.15423L6.08347 4.87976Z" fill="#2C2738"/>
</svg>
