<svg width="218" height="35" viewBox="0 0 218 35" fill="none" xmlns="http://www.w3.org/2000/svg">
<path opacity="0.4" d="M94.1782 2.49976L94.3059 3.49157L94.1782 2.49976ZM217.678 30.4998L206.195 31.7115L210.887 21.1608L217.678 30.4998ZM1.17822 33.9998C0.753991 33.0942 0.754 33.0942 0.75401 33.0942C0.754016 33.0942 0.754029 33.0942 0.754041 33.0942C0.754065 33.0942 0.754096 33.0942 0.754135 33.0941C0.754213 33.0941 0.75432 33.094 0.754456 33.094C0.754729 33.0939 0.75512 33.0937 0.755628 33.0934C0.756644 33.093 0.75813 33.0923 0.760084 33.0913C0.763993 33.0895 0.769774 33.0868 0.777412 33.0832C0.792689 33.0761 0.815396 33.0655 0.845413 33.0515C0.905447 33.0235 0.994724 32.982 1.11229 32.9275C1.34741 32.8185 1.69568 32.6577 2.14945 32.4498L2.98256 34.268C2.53154 34.4747 2.18592 34.6343 1.95335 34.7421C1.83706 34.796 1.74904 34.8369 1.69024 34.8643C1.66084 34.878 1.63875 34.8883 1.62407 34.8952C1.61674 34.8986 1.61126 34.9012 1.60765 34.9029C1.60585 34.9037 1.60451 34.9043 1.60364 34.9048C1.60321 34.905 1.60289 34.9051 1.6027 34.9052C1.6026 34.9052 1.60253 34.9053 1.60249 34.9053C1.60247 34.9053 1.60245 34.9053 1.60245 34.9053C1.60245 34.9053 1.60245 34.9053 1.60245 34.9053C1.60245 34.9053 1.60245 34.9053 1.17822 33.9998ZM4.9494 31.1801C5.77897 30.8073 6.72059 30.387 7.76426 29.9252L8.57343 31.7542C7.53343 32.2143 6.59534 32.6331 5.76914 33.0044L4.9494 31.1801ZM10.5955 28.6816C11.4857 28.2934 12.4268 27.8854 13.4149 27.4603L14.2054 29.2975C13.2204 29.7212 12.2823 30.1279 11.3951 30.5149L10.5955 28.6816ZM16.2487 26.2492C17.1651 25.8601 18.1133 25.4601 19.0906 25.0508L19.8632 26.8955C18.889 27.3036 17.9438 27.7023 17.0303 28.0901L16.2487 26.2492ZM21.9391 23.8657C22.8697 23.4812 23.8222 23.0903 24.7947 22.694L25.5494 24.5462C24.58 24.9412 23.6305 25.3309 22.7029 25.7142L21.9391 23.8657ZM27.658 21.5357C28.5996 21.1576 29.5571 20.7757 30.529 20.3912L31.2648 22.2509C30.2962 22.6341 29.3419 23.0147 28.4033 23.3916L27.658 21.5357ZM33.3916 19.2672C34.338 18.8985 35.2961 18.5281 36.2645 18.157L36.9803 20.0245C36.0154 20.3943 35.0607 20.7634 34.1176 21.1308L33.3916 19.2672ZM39.1478 17.0611C40.1039 16.7009 41.0685 16.3406 42.0405 15.9809L42.7345 17.8567C41.7663 18.2149 40.8054 18.5738 39.853 18.9327L39.1478 17.0611ZM44.9404 14.9181C45.9012 14.5695 46.8679 14.222 47.8395 13.8766L48.5095 15.761C47.5421 16.105 46.5795 16.4509 45.6227 16.7982L44.9404 14.9181ZM50.7499 12.8531C51.7196 12.5158 52.6932 12.1812 53.6694 11.8497L54.3124 13.7435C53.341 14.0733 52.3721 14.4064 51.4068 14.7421L50.7499 12.8531ZM56.5959 10.8686C57.5727 10.5454 58.5511 10.2261 59.5301 9.91119L60.1425 11.8151C59.1689 12.1283 58.1958 12.4459 57.2241 12.7674L56.5959 10.8686ZM62.4746 8.97858C63.4595 8.67154 64.444 8.36965 65.4271 8.07358L66.0038 9.98862C65.0271 10.2828 64.0488 10.5828 63.0698 10.888L62.4746 8.97858ZM68.3859 7.19916C69.3805 6.91094 70.3726 6.62938 71.3611 6.35518L71.8957 8.28241C70.9149 8.55449 69.9301 8.83396 68.9425 9.12013L68.3859 7.19916ZM74.3477 5.54657C75.3515 5.28166 76.3505 5.02517 77.3433 4.77785L77.8267 6.71854C76.8433 6.96353 75.8533 7.21771 74.8581 7.48036L74.3477 5.54657ZM80.3471 4.05367C81.3604 3.8178 82.3659 3.59254 83.3624 3.3787L83.782 5.33418C82.7974 5.54548 81.8031 5.76821 80.8006 6.00159L80.3471 4.05367ZM86.4041 2.75659C87.4344 2.55668 88.4532 2.37041 89.4591 2.19877L89.7955 4.17027C88.8054 4.33923 87.8014 4.52277 86.7851 4.71997L86.4041 2.75659ZM92.5283 1.71542C93.0397 1.64193 93.5472 1.57273 94.0506 1.50794L94.3059 3.49157C93.8126 3.55507 93.3148 3.62295 92.8127 3.69509L92.5283 1.71542ZM94.0506 1.50794C94.5532 1.44323 95.0587 1.38288 95.5667 1.32678L95.7862 3.3147C95.2899 3.3695 94.7964 3.42843 94.3059 3.49157L94.0506 1.50794ZM98.6457 1.04062C99.6559 0.963783 100.675 0.902477 101.703 0.856068L101.793 2.85403C100.785 2.89955 99.7864 2.95964 98.7974 3.03486L98.6457 1.04062ZM104.778 0.76141C105.797 0.744274 106.822 0.740723 107.855 0.750175L107.836 2.75009C106.821 2.74079 105.812 2.74429 104.812 2.76113L104.778 0.76141ZM110.916 0.815174C111.935 0.848789 112.959 0.894238 113.988 0.950989L113.878 2.94795C112.863 2.89199 111.854 2.8472 110.85 2.81409L110.916 0.815174ZM117.043 1.15113C118.057 1.22785 119.075 1.31486 120.097 1.41167L119.908 3.40274C118.899 3.30709 117.893 3.22116 116.892 3.14543L117.043 1.15113ZM123.148 1.72849C124.158 1.84226 125.17 1.96502 126.183 2.09629L125.927 4.07974C124.923 3.94983 123.922 3.82841 122.924 3.71591L123.148 1.72849ZM129.221 2.51384C130.227 2.66005 131.235 2.81415 132.243 2.97569L131.926 4.9505C130.928 4.79046 129.93 4.63783 128.933 4.49305L129.221 2.51384ZM135.262 3.48093C136.265 3.65588 137.269 3.83774 138.271 4.02606L137.902 5.99171C136.908 5.80494 135.913 5.62462 134.918 5.4512L135.262 3.48093ZM141.274 4.60915C142.273 4.80953 143.271 5.01592 144.268 5.22787L143.851 7.18411C142.862 6.97373 141.872 6.76892 140.881 6.5701L141.274 4.60915ZM147.255 5.88092C148.25 6.10416 149.243 6.33255 150.233 6.56565L149.775 8.5124C148.791 8.28087 147.805 8.05407 146.818 7.83241L147.255 5.88092ZM153.205 7.28161C154.197 7.52579 155.185 7.77431 156.169 8.02673L155.673 9.96402C154.694 9.71317 153.712 9.46622 152.727 9.22362L153.205 7.28161ZM159.122 8.7988C160.112 9.06244 161.096 9.32962 162.076 9.59988L161.544 11.5278C160.57 11.2591 159.591 10.9935 158.607 10.7314L159.122 8.7988ZM165.009 10.4231C165.996 10.7046 166.976 10.9889 167.95 11.2754L167.385 13.194C166.417 12.9091 165.442 12.6264 164.46 12.3464L165.009 10.4231ZM170.876 12.1492C171.855 12.4459 172.826 12.7445 173.789 13.0443L173.194 14.9538C172.236 14.6555 171.27 14.3585 170.296 14.0632L170.876 12.1492ZM176.71 13.9667C177.687 14.279 178.652 14.592 179.607 14.9051L178.984 16.8055C178.034 16.4938 177.073 16.1824 176.101 15.8716L176.71 13.9667ZM182.507 15.8677C183.487 16.1969 184.453 16.5256 185.406 16.8531L184.755 18.7444C183.807 18.4184 182.845 18.0912 181.87 17.7635L182.507 15.8677ZM188.28 17.8524C189.255 18.1953 190.213 18.5361 191.154 18.8739L190.477 20.7561C189.541 20.4198 188.587 20.0805 187.616 19.7392L188.28 17.8524ZM194.036 19.9208C195.014 20.2794 195.969 20.6336 196.9 20.9824L196.198 22.8553C195.271 22.5081 194.321 22.1554 193.348 21.7983L194.036 19.9208ZM199.745 22.0594C200.722 22.4326 201.667 22.7977 202.578 23.1534L201.851 25.0166C200.944 24.6625 200.003 24.299 199.031 23.9275L199.745 22.0594ZM205.419 24.2727C206.413 24.6686 207.357 25.0489 208.249 25.4114L207.496 27.2642C206.609 26.9034 205.668 26.5249 204.679 26.1309L205.419 24.2727ZM211.086 26.5776C212.144 27.017 213.094 27.4174 213.927 27.7726L213.144 29.6126C212.315 29.2597 211.371 28.8615 210.319 28.4244L211.086 26.5776Z" fill="#2C2738"/>
</svg>
