<svg width="80" height="80" viewBox="0 0 80 80" fill="none" xmlns="http://www.w3.org/2000/svg">
<rect opacity="0.2" x="10" y="10" width="70" height="70" rx="10" fill="#1CA2CF"/>
<rect width="70" height="70" rx="10" fill="url(#paint0_linear_104_1089)"/>
<path d="M35.0001 45.441C32.4642 45.441 29.9284 44.4776 27.9875 42.5368C24.12 38.6693 24.12 32.3793 27.9875 28.5118C31.855 24.6443 38.1451 24.6443 42.0126 28.5118C45.8801 32.3793 45.8801 38.6693 42.0126 42.5368C40.0717 44.4776 37.5359 45.441 35.0001 45.441ZM35.0001 27.7326C33.0026 27.7326 31.005 28.4976 29.4892 30.0134C26.4575 33.0593 26.4575 37.9893 29.4892 41.0351C32.535 44.081 37.4792 44.0668 40.5109 41.0351C43.5426 37.9893 43.5426 33.0593 40.5109 30.0134C38.9951 28.4976 36.9976 27.7326 35.0001 27.7326Z" fill="white"/>
<path d="M29.6875 49.7192C29.56 49.7192 29.4183 49.6908 29.2908 49.6483C26.1033 48.3733 23.525 46.1208 21.7966 43.1458C20.125 40.2416 19.4591 36.955 19.8983 33.6117C19.9691 33.0308 20.5075 32.62 21.0883 32.6908C21.6691 32.7616 22.0799 33.3 22.0091 33.8808C21.6408 36.7425 22.2075 39.5758 23.6383 42.0691C25.1117 44.6191 27.3358 46.56 30.07 47.6508C30.6083 47.8775 30.8775 48.4866 30.665 49.0391C30.5091 49.4641 30.0983 49.7192 29.6875 49.7192Z" fill="white"/>
<path d="M26.2877 25.4091C25.976 25.4091 25.6644 25.2675 25.4519 24.9983C25.0835 24.5308 25.1685 23.865 25.636 23.5109C28.3419 21.4 31.5718 20.2808 35.0002 20.2808C38.3435 20.2808 41.531 21.3575 44.2085 23.3975C44.676 23.7517 44.761 24.4175 44.4069 24.885C44.0527 25.3525 43.3868 25.4375 42.9193 25.0833C40.6243 23.3267 37.8902 22.4058 35.0002 22.4058C32.0535 22.4058 29.2627 23.3692 26.9393 25.1825C26.741 25.3384 26.5143 25.4091 26.2877 25.4091Z" fill="white"/>
<path d="M40.3128 49.7191C39.8878 49.7191 39.4912 49.4641 39.3212 49.0533C39.1087 48.5149 39.3637 47.8916 39.9162 47.665C42.6503 46.56 44.8745 44.6333 46.3479 42.0833C47.7929 39.59 48.3595 36.7566 47.977 33.8949C47.9062 33.3141 48.317 32.7758 48.8978 32.705C49.4645 32.6341 50.017 33.045 50.0878 33.6258C50.5128 36.955 49.8612 40.2558 48.1895 43.16C46.4753 46.135 43.8828 48.3733 40.6953 49.6624C40.582 49.6908 40.4545 49.7191 40.3128 49.7191Z" fill="white"/>
<defs>
<linearGradient id="paint0_linear_104_1089" x1="70" y1="70" x2="-31.9804" y2="35.8122" gradientUnits="userSpaceOnUse">
<stop stop-color="#0099CA"/>
<stop offset="1" stop-color="#ADD2E8"/>
</linearGradient>
</defs>
</svg>
